<?xml version="1.0" standalone="no"?>
<!DOCTYPE svg PUBLIC "-//W3C//DTD SVG 20010904//EN"
 "http://www.w3.org/TR/2001/REC-SVG-20010904/DTD/svg10.dtd">
<svg version="1.0" xmlns="http://www.w3.org/2000/svg"
 width="1280.000000pt" height="640.000000pt" viewBox="0 0 1280.000000 640.000000"
 preserveAspectRatio="xMidYMid meet">
<metadata>
Created by potrace 1.15, written by Peter Selinger 2001-2017
</metadata>
<g transform="translate(0.000000,640.000000) scale(0.100000,-0.100000)"
fill="#000000" stroke="none">
<path d="M7885 5375 c-78 -15 -702 -298 -880 -399 -240 -135 -356 -252 -342
-344 5 -29 4 -33 -11 -27 -129 54 -191 68 -337 76 -82 4 -167 11 -188 14 -56
8 -200 -12 -292 -41 -44 -14 -139 -56 -210 -94 -72 -39 -218 -115 -325 -170
-107 -55 -220 -116 -250 -135 -30 -19 -80 -44 -110 -56 -30 -12 -85 -37 -122
-56 -37 -18 -69 -33 -71 -33 -2 0 -2 15 0 33 9 84 -93 172 -352 303 -216 110
-288 152 -400 232 -202 145 -407 201 -585 159 -31 -8 -115 -47 -190 -89 -74
-41 -216 -117 -315 -168 -454 -233 -495 -257 -536 -325 -37 -59 -16 -171 50
-263 l19 -27 -92 -1 c-113 -1 -170 -20 -337 -110 -181 -97 -350 -194 -382
-221 -16 -12 -99 -58 -185 -102 -307 -155 -437 -238 -467 -298 -20 -41 -19
-112 2 -165 73 -185 252 -360 474 -462 63 -29 383 -121 553 -160 l50 -11 28
-130 c25 -116 27 -136 17 -185 -13 -63 -40 -119 -80 -170 -16 -20 -32 -57 -38
-85 -42 -215 -41 -236 2 -269 92 -70 220 -101 497 -122 240 -18 309 -12 355
29 36 32 52 175 37 324 -14 141 -71 363 -117 458 -36 75 -68 156 -63 160 2 1
59 14 128 28 69 14 162 36 206 50 l81 24 7 -60 c3 -33 6 -90 6 -126 0 -114 44
-146 211 -157 194 -12 408 25 477 83 30 26 33 35 44 118 12 93 -1 401 -22 529
-8 53 -7 63 16 109 34 67 29 112 -21 172 -19 24 -40 57 -45 72 -9 26 -59 305
-56 310 1 1 33 7 71 13 72 11 287 57 311 67 11 4 14 -7 14 -46 0 -200 249
-477 578 -644 94 -48 151 -67 477 -155 335 -92 383 -103 510 -113 77 -7 141
-13 142 -14 5 -2 53 -306 53 -333 0 -55 -50 -226 -95 -322 -30 -64 -48 -120
-55 -170 -6 -41 -15 -99 -21 -129 -5 -30 -9 -81 -9 -113 0 -48 5 -66 26 -93
44 -58 179 -120 324 -149 251 -51 407 -58 546 -28 93 21 130 41 145 79 16 43
23 337 10 450 -24 226 -93 524 -157 688 -24 63 -44 120 -44 127 0 10 28 17
100 26 277 33 610 126 871 243 48 22 89 39 91 39 2 0 1 -33 -3 -72 -38 -372
-38 -363 1 -410 51 -62 98 -72 360 -72 222 -1 226 -1 275 24 49 26 49 26 74
115 25 88 25 97 25 420 -1 215 -7 403 -18 540 -9 116 -20 298 -23 406 l-6 196
104 7 c147 10 356 42 479 72 287 71 459 181 489 313 13 60 -2 101 -60 165 -65
71 -148 132 -344 251 -88 54 -218 136 -289 182 -71 46 -160 100 -198 119 -192
97 -418 135 -593 99z m-426 -1175 c52 -11 147 -25 213 -32 l118 -11 0 -82 0
-82 -232 114 c-128 63 -235 117 -238 120 -3 3 6 3 20 -1 14 -3 67 -15 119 -26z"/>
<path d="M10445 4055 c-91 -17 -177 -49 -404 -150 -102 -45 -197 -85 -211 -90
-14 -4 -34 -13 -45 -20 -11 -7 -110 -47 -220 -90 -448 -174 -515 -217 -515
-328 0 -81 111 -223 249 -316 71 -49 235 -129 327 -159 149 -50 363 -94 531
-108 77 -6 81 -8 86 -33 3 -14 -6 -78 -19 -141 -55 -259 -107 -672 -95 -752 5
-31 4 -48 -2 -48 -19 0 48 -61 83 -77 92 -39 260 -69 445 -79 145 -7 248 10
310 54 37 26 40 33 53 102 34 190 -41 672 -134 872 -21 43 -35 80 -33 82 2 2
65 11 140 20 168 21 383 64 543 110 181 52 443 177 568 271 91 69 128 117 128
168 0 36 -6 47 -55 94 -62 60 -171 116 -455 233 -229 95 -336 143 -412 187
-186 106 -325 162 -479 193 -117 23 -275 25 -384 5z"/>
</g>
</svg>
