<?xml version="1.0" standalone="no"?>
<!DOCTYPE svg PUBLIC "-//W3C//DTD SVG 20010904//EN"
 "http://www.w3.org/TR/2001/REC-SVG-20010904/DTD/svg10.dtd">
<svg version="1.0" xmlns="http://www.w3.org/2000/svg"
 width="1280.000000pt" height="640.000000pt" viewBox="0 0 1280.000000 640.000000"
 preserveAspectRatio="xMidYMid meet">
<metadata>
Created by potrace 1.15, written by Peter Selinger 2001-2017
</metadata>
<g transform="translate(0.000000,640.000000) scale(0.100000,-0.100000)"
fill="#000000" stroke="none">
<path d="M4770 5719 c-159 -36 -459 -151 -795 -303 -401 -182 -690 -364 -842
-530 -95 -103 -116 -187 -67 -260 50 -73 331 -183 624 -245 262 -55 472 -83
881 -116 l77 -6 6 -37 c18 -109 -12 -512 -38 -512 -1 0 -40 13 -87 29 -165 56
-316 120 -489 204 -296 144 -534 207 -787 207 -169 0 -235 -16 -508 -123 -77
-30 -194 -74 -260 -97 -66 -23 -176 -64 -245 -91 -69 -26 -199 -74 -290 -105
-309 -106 -463 -174 -499 -220 -38 -48 -46 -97 -26 -150 44 -116 208 -259 410
-359 239 -117 502 -185 842 -216 l130 -12 27 -169 c25 -150 27 -177 17 -229
-15 -76 -37 -127 -89 -207 -49 -76 -71 -164 -79 -315 -6 -106 -6 -109 19 -132
69 -64 187 -98 413 -120 369 -36 596 0 628 100 6 17 10 118 11 225 0 183 -2
205 -32 350 -44 207 -73 302 -127 404 -25 46 -45 87 -45 89 0 2 46 7 103 11
182 13 430 52 575 90 50 14 53 13 47 -2 -4 -9 -27 -97 -51 -196 -48 -193 -48
-179 5 -239 151 -169 997 -297 1225 -186 27 13 32 23 53 114 38 167 33 285
-27 631 -55 320 -65 367 -120 599 -21 88 -45 207 -54 265 -17 117 -39 370 -33
376 2 3 109 0 238 -5 129 -6 342 -13 474 -17 621 -16 963 65 1014 241 37 131
-163 368 -579 684 -248 189 -521 372 -563 376 -12 2 -58 23 -102 48 -136 76
-300 128 -459 146 -136 16 -474 22 -526 10z"/>
<path d="M8005 4350 c-45 -9 -92 -27 -446 -173 -347 -144 -391 -163 -569 -252
-125 -63 -166 -89 -217 -139 -101 -97 -115 -173 -45 -238 77 -72 299 -193 443
-242 170 -57 370 -99 577 -118 l122 -12 0 -145 c0 -80 -5 -175 -10 -211 -14
-86 -63 -232 -117 -349 -25 -53 -54 -136 -64 -185 -27 -122 -53 -341 -53 -455
l-1 -95 42 -32 c54 -41 108 -52 305 -63 230 -14 432 8 485 51 24 20 63 168 74
286 13 137 5 459 -16 632 -16 132 -37 401 -32 407 2 2 24 -14 48 -35 218 -191
574 -324 1005 -375 l109 -12 23 -120 c13 -71 23 -167 25 -235 2 -106 -1 -123
-31 -220 -19 -58 -53 -142 -78 -186 -53 -99 -70 -167 -84 -348 l-11 -139 28
-29 c93 -99 374 -154 733 -146 212 6 289 23 352 80 34 32 37 38 52 143 31 211
18 393 -51 720 -33 156 -66 261 -113 360 -66 136 -69 128 52 149 290 51 549
141 808 282 183 99 298 188 352 273 34 55 38 120 9 167 -39 65 -193 154 -486
284 -204 90 -385 183 -518 267 -187 117 -337 182 -509 219 -91 19 -269 22
-368 5 -75 -14 -272 -92 -431 -172 l-80 -40 -207 118 c-407 231 -540 288 -739
318 -103 16 -301 18 -368 5z"/>
</g>
</svg>
