<?xml version="1.0" standalone="no"?>
<!DOCTYPE svg PUBLIC "-//W3C//DTD SVG 20010904//EN"
 "http://www.w3.org/TR/2001/REC-SVG-20010904/DTD/svg10.dtd">
<svg version="1.0" xmlns="http://www.w3.org/2000/svg"
 width="981.000000pt" height="1280.000000pt" viewBox="0 0 981.000000 1280.000000"
 preserveAspectRatio="xMidYMid meet">
<metadata>
Created by potrace 1.15, written by Peter Selinger 2001-2017
</metadata>
<g transform="translate(0.000000,1280.000000) scale(0.100000,-0.100000)"
fill="#000000" stroke="none">
<path d="M5425 12789 c-240 -35 -415 -126 -582 -302 -179 -189 -308 -430 -458
-852 -176 -497 -366 -872 -875 -1730 -130 -220 -206 -399 -246 -585 -23 -105
-26 -366 -6 -450 39 -158 94 -284 183 -417 66 -98 239 -272 344 -345 314 -218
715 -356 1250 -429 88 -12 161 -23 162 -23 5 -3 -19 -242 -32 -316 -8 -47 -44
-184 -80 -305 -122 -403 -168 -615 -135 -615 26 0 160 258 326 627 l59 132 8
-52 c5 -29 6 -207 4 -397 -4 -338 -5 -349 -40 -565 -46 -280 -89 -521 -182
-1010 -111 -589 -131 -701 -165 -960 -41 -313 -53 -799 -25 -1035 44 -376 144
-709 306 -1018 170 -327 352 -540 726 -856 l152 -128 30 -77 c16 -42 50 -146
75 -231 25 -85 59 -189 74 -230 47 -122 85 -210 89 -206 2 2 -9 48 -26 102
-42 138 -61 250 -61 361 0 102 9 133 40 133 23 0 260 -117 376 -185 88 -52
158 -106 179 -139 24 -37 44 -159 60 -365 12 -163 26 -275 37 -310 1 -3 5 147
8 334 5 262 10 350 21 385 l15 45 7 -40 c3 -22 11 -105 18 -185 12 -152 27
-224 28 -138 1 80 22 201 41 243 29 63 79 108 135 123 196 52 395 190 642 445
306 318 463 655 513 1102 13 115 13 432 0 555 -13 119 -45 308 -65 380 -9 30
-18 105 -22 166 -10 185 4 230 255 839 117 285 202 593 247 900 19 131 45 399
45 472 l0 52 58 6 c257 26 351 49 497 119 268 128 403 344 367 586 -24 165
-75 281 -311 699 -117 205 -156 286 -211 429 -168 441 -258 587 -407 658 -79
38 -200 40 -281 4 -122 -53 -211 -200 -315 -520 -84 -258 -131 -368 -302 -720
-79 -162 -153 -326 -165 -365 -28 -88 -38 -254 -20 -334 17 -79 75 -184 139
-254 145 -156 364 -247 704 -292 55 -7 57 23 -15 -250 -64 -244 -178 -619
-217 -718 -164 -412 -429 -734 -640 -778 -138 -28 -272 36 -333 159 l-33 67 1
150 c2 139 4 161 40 300 l39 150 100 17 c162 28 278 81 356 165 112 119 87
255 -104 575 -51 85 -116 214 -148 291 -68 162 -114 241 -170 291 -50 46 -76
56 -145 56 -71 0 -110 -17 -157 -69 -45 -50 -71 -103 -138 -286 -28 -77 -93
-225 -144 -330 -51 -104 -98 -208 -106 -230 -20 -62 -16 -162 9 -217 45 -102
169 -189 317 -224 39 -9 75 -17 81 -19 17 -5 -41 -217 -78 -287 -39 -74 -103
-133 -160 -148 -58 -16 -163 -8 -221 18 -138 61 -251 278 -317 604 -31 153
-49 308 -71 603 -25 343 -54 656 -80 860 -20 162 -55 386 -65 418 -3 9 -3 17
0 17 2 0 12 -24 22 -52 54 -168 223 -428 276 -428 15 0 18 9 18 51 0 98 -105
489 -254 944 -41 126 -74 231 -72 232 2 2 59 10 127 18 637 75 1119 279 1449
615 154 156 254 321 301 495 33 122 32 349 -3 500 -70 300 -216 576 -577 1089
-339 482 -380 549 -552 901 -69 143 -183 375 -251 515 -242 496 -367 682 -565
833 -205 157 -467 224 -728 186z"/>
<path d="M994 9699 c-106 -12 -175 -42 -244 -106 -110 -102 -164 -194 -257
-442 -67 -178 -180 -414 -298 -621 -155 -274 -182 -340 -191 -480 -20 -296
166 -530 511 -643 80 -27 226 -59 321 -72 l51 -7 -5 -46 c-2 -26 -16 -90 -29
-142 -76 -294 -103 -408 -103 -435 1 -29 1 -29 16 -10 9 11 28 47 44 80 15 33
58 128 96 210 l69 150 7 -105 c15 -250 1 -378 -112 -1010 -87 -485 -115 -670
-130 -870 -29 -364 17 -629 160 -925 133 -275 321 -504 565 -685 119 -88 197
-136 365 -220 185 -93 343 -145 485 -160 205 -22 300 -59 366 -142 67 -85 129
-270 129 -385 0 -26 2 -44 6 -41 3 3 6 103 8 222 4 275 13 294 48 109 11 -59
23 -119 26 -133 l6 -25 3 25 c20 134 40 224 73 328 68 211 80 299 80 570 0
346 -26 550 -97 776 -62 196 -196 465 -282 569 -104 124 -190 172 -471 256
-113 34 -223 70 -245 80 -90 40 -221 192 -280 326 -58 131 -73 217 -105 600
-18 214 -39 410 -65 595 l-6 45 25 -57 c51 -114 119 -214 137 -202 22 13 3
104 -76 357 -46 150 -87 281 -90 289 -5 13 3 18 37 23 75 12 191 46 263 78
107 47 194 108 282 200 188 196 206 366 68 662 -56 121 -105 204 -253 430 -96
146 -148 238 -222 397 -174 368 -256 476 -420 552 -49 23 -73 28 -170 40 -14
1 -57 -1 -96 -5z"/>
</g>
</svg>
