<?xml version="1.0" standalone="no"?>
<!DOCTYPE svg PUBLIC "-//W3C//DTD SVG 20010904//EN"
 "http://www.w3.org/TR/2001/REC-SVG-20010904/DTD/svg10.dtd">
<svg version="1.0" xmlns="http://www.w3.org/2000/svg"
 width="640.000000pt" height="1280.000000pt" viewBox="0 0 640.000000 1280.000000"
 preserveAspectRatio="xMidYMid meet">
<metadata>
Created by potrace 1.15, written by Peter Selinger 2001-2017
</metadata>
<g transform="translate(0.000000,1280.000000) scale(0.100000,-0.100000)"
fill="#000000" stroke="none">
<path d="M2870 12784 c-245 -26 -412 -103 -592 -273 -229 -217 -382 -483 -558
-966 -194 -531 -476 -1073 -924 -1773 -216 -338 -305 -530 -361 -782 -25 -113
-31 -354 -12 -465 66 -376 313 -720 680 -944 156 -95 390 -199 584 -260 313
-97 779 -178 1136 -198 84 -4 117 -10 117 -19 0 -39 -36 -189 -90 -371 -96
-325 -130 -491 -98 -481 20 7 88 144 199 399 57 131 107 239 112 239 14 0 11
-577 -4 -700 -23 -188 -75 -524 -170 -1090 -107 -640 -133 -838 -149 -1136
-43 -763 225 -1706 613 -2154 145 -168 338 -287 520 -322 l67 -13 0 -55 c0
-30 -9 -143 -20 -250 -11 -107 -19 -217 -19 -245 1 -30 7 -2 15 72 7 67 20
149 29 182 17 66 53 156 60 150 2 -3 0 -34 -5 -69 -13 -91 -13 -427 0 -535 26
-218 76 -415 149 -590 28 -66 51 -113 51 -105 0 8 -11 80 -24 160 -42 248 -51
348 -51 570 0 231 22 409 66 550 35 109 38 104 39 -47 0 -158 11 -255 43 -388
l21 -90 7 160 c8 169 23 320 41 395 6 25 50 115 98 200 48 85 138 255 201 378
78 153 115 216 117 200 1 -13 6 -72 10 -133 l7 -110 22 140 c30 188 88 677
107 902 29 333 21 496 -40 793 -62 301 -138 484 -244 590 -83 82 -150 122
-290 171 -62 22 -131 53 -155 69 -121 83 -206 245 -255 485 -22 109 -33 213
-55 540 -34 513 -74 906 -111 1105 -2 14 9 -13 25 -60 38 -109 125 -280 167
-328 25 -29 35 -34 45 -25 20 20 -3 127 -111 504 -55 192 -100 351 -100 354 0
3 20 5 45 5 24 0 113 9 197 20 611 78 1079 255 1440 544 229 184 402 414 477
635 107 315 26 732 -228 1159 -95 162 -293 456 -516 767 -344 482 -340 474
-672 1160 -197 406 -298 594 -419 775 -207 311 -432 491 -718 574 -162 47
-280 54 -516 30z"/>
</g>
</svg>
