<?xml version="1.0" standalone="no"?>
<!DOCTYPE svg PUBLIC "-//W3C//DTD SVG 20010904//EN"
 "http://www.w3.org/TR/2001/REC-SVG-20010904/DTD/svg10.dtd">
<svg version="1.0" xmlns="http://www.w3.org/2000/svg"
 width="1280.000000pt" height="640.000000pt" viewBox="0 0 1280.000000 640.000000"
 preserveAspectRatio="xMidYMid meet">
<metadata>
Created by potrace 1.15, written by Peter Selinger 2001-2017
</metadata>
<g transform="translate(0.000000,640.000000) scale(0.100000,-0.100000)"
fill="#000000" stroke="none">
<path d="M2780 6034 c-341 -49 -581 -152 -1105 -474 -104 -64 -320 -194 -480
-289 -459 -274 -716 -452 -956 -658 -129 -112 -169 -189 -109 -211 16 -6 9
-20 -53 -102 -66 -87 -71 -99 -75 -152 l-4 -57 52 -53 51 -53 -6 -52 c-8 -63
4 -88 50 -107 46 -19 60 -53 74 -171 18 -151 45 -245 71 -245 16 0 28 67 33
176 2 61 9 120 15 130 9 16 11 13 20 -21 6 -22 13 -57 16 -77 13 -71 45 -68
166 18 130 91 261 138 334 120 42 -10 95 -65 128 -130 44 -89 53 -96 112 -96
94 0 118 -13 181 -96 31 -41 63 -78 71 -81 28 -11 62 16 124 96 33 45 72 88
85 97 35 23 68 11 99 -36 39 -60 68 -56 139 20 48 50 62 60 91 60 40 0 49 -9
101 -109 49 -93 63 -97 164 -47 110 56 125 50 194 -74 48 -87 78 -115 127
-115 52 0 85 33 163 162 34 57 65 103 68 103 4 0 9 -23 13 -51 20 -148 109
-416 198 -594 111 -220 284 -438 464 -586 156 -128 395 -261 615 -343 104 -38
321 -97 434 -117 104 -18 165 -67 165 -134 0 -27 -36 -128 -68 -190 -37 -71
-325 -816 -357 -922 -6 -22 -4 -23 58 -23 l64 0 61 153 c80 200 191 442 249
542 115 200 267 356 416 430 147 73 243 73 267 0 17 -51 4 -95 -165 -560 -77
-212 -117 -356 -149 -533 l-6 -33 66 3 66 3 48 160 c63 210 144 424 209 555
76 151 232 382 311 460 113 112 280 184 425 185 107 0 161 -29 200 -110 25
-51 27 -62 22 -148 -3 -50 -14 -162 -26 -247 -16 -119 -101 -837 -101 -856 0
-2 29 -4 65 -4 l64 0 5 33 c3 17 15 111 26 207 50 430 132 889 183 1037 45
128 138 244 251 311 30 19 102 53 158 76 834 344 1777 398 2478 144 200 -73
470 -222 628 -346 358 -282 565 -690 532 -1046 -13 -139 -57 -219 -208 -376
-105 -110 -142 -156 -142 -174 0 -3 8 -10 19 -15 13 -7 52 -3 137 15 217 45
268 54 394 69 147 18 254 19 405 5 155 -14 611 -76 790 -106 159 -28 313 -34
357 -16 48 20 43 77 -12 127 -12 11 -31 33 -42 49 -17 23 -18 30 -7 37 25 15
72 10 220 -27 154 -38 265 -51 289 -35 21 14 -11 46 -134 134 -206 148 -277
241 -382 500 -133 328 -315 639 -538 922 -105 134 -386 411 -516 512 -581 447
-1289 686 -2139 722 -197 9 -540 0 -711 -18 -690 -73 -1216 -223 -2455 -699
-621 -238 -804 -280 -1179 -269 -283 8 -506 63 -765 187 -397 192 -694 491
-830 838 l-21 52 21 55 c25 66 39 69 102 21 75 -57 83 -60 120 -37 18 11 48
36 66 55 20 20 45 36 57 36 29 0 58 -38 79 -99 18 -55 39 -78 75 -83 15 -2 37
-21 58 -48 45 -59 70 -60 90 -2 17 53 33 60 77 36 46 -25 58 -12 91 94 31 103
53 132 102 132 30 0 45 -10 100 -65 62 -63 101 -81 117 -55 3 6 17 10 30 10
29 0 55 -45 75 -128 14 -62 29 -72 66 -43 21 16 39 21 83 19 81 -2 131 16 213
78 78 59 112 73 137 57 27 -16 51 -75 51 -124 0 -25 6 -54 14 -65 13 -17 16
-17 29 -4 8 8 21 42 30 75 9 33 24 66 34 73 10 7 40 27 68 45 27 18 56 45 63
60 14 29 13 36 -14 127 -6 21 -5 23 7 14 8 -7 59 -26 115 -43 55 -17 108 -39
116 -48 8 -10 34 -50 57 -90 51 -89 74 -99 113 -52 15 18 35 54 45 79 38 106
76 191 95 215 11 14 57 57 103 95 60 50 90 83 109 122 35 70 36 141 1 192 -14
20 -25 39 -25 41 0 3 13 2 28 -1 19 -4 35 1 52 14 l24 20 -18 58 c-27 87 -80
193 -123 246 -21 26 -53 68 -71 93 -91 126 -509 414 -1062 732 -242 139 -582
325 -722 395 -65 32 -118 62 -118 67 0 5 -14 11 -31 15 -17 3 -28 9 -25 14 2
4 -5 9 -18 10 -12 1 -73 26 -136 56 -166 78 -362 142 -498 160 -100 14 -323
20 -392 10z"/>
</g>
</svg>
