<?xml version="1.0" standalone="no"?>
<!DOCTYPE svg PUBLIC "-//W3C//DTD SVG 20010904//EN"
 "http://www.w3.org/TR/2001/REC-SVG-20010904/DTD/svg10.dtd">
<svg version="1.0" xmlns="http://www.w3.org/2000/svg"
 width="1280.000000pt" height="838.000000pt" viewBox="0 0 1280.000000 838.000000"
 preserveAspectRatio="xMidYMid meet">
<metadata>
Created by potrace 1.15, written by Peter Selinger 2001-2017
</metadata>
<g transform="translate(0.000000,838.000000) scale(0.100000,-0.100000)"
fill="#000000" stroke="none">
<path d="M9587 8369 c-315 -36 -610 -164 -871 -378 -102 -84 -290 -281 -372
-391 -100 -133 -155 -225 -274 -455 -120 -234 -152 -285 -213 -343 l-44 -44
-48 89 c-211 389 -454 610 -765 694 -74 21 -107 24 -260 23 -154 -1 -186 -4
-270 -26 -315 -84 -540 -282 -714 -629 -98 -195 -156 -370 -225 -678 -19 -83
-41 -151 -57 -180 -39 -65 -135 -163 -210 -212 -68 -44 -73 -59 -21 -59 l32 0
-30 -24 c-65 -53 -141 -91 -282 -140 -80 -28 -148 -56 -150 -63 -6 -16 71 -58
142 -77 33 -9 97 -20 141 -24 l82 -7 -29 -70 c-15 -38 -31 -92 -35 -118 -6
-44 -12 -52 -58 -86 -110 -79 -93 -77 -192 -20 -258 148 -544 249 -843 295
-131 20 -437 23 -571 5 -377 -51 -799 -209 -1124 -421 -348 -227 -649 -542
-864 -905 -301 -506 -504 -1139 -586 -1830 -29 -239 -87 -958 -105 -1303 -14
-254 -27 -274 -221 -341 -86 -29 -235 -67 -257 -64 -7 0 -10 -3 -7 -9 3 -5 -6
-6 -23 -3 -19 4 -22 3 -9 -3 17 -7 16 -9 -8 -25 -14 -10 -26 -22 -26 -27 0 -7
73 -8 203 -4 201 6 242 3 550 -36 49 -7 164 -10 257 -8 92 2 166 0 164 -4 -10
-17 -129 -46 -354 -89 -112 -21 -170 -41 -170 -58 0 -19 28 -29 99 -35 41 -4
156 -23 255 -42 232 -45 370 -56 581 -49 167 6 483 31 518 41 12 4 17 0 17
-15 0 -13 9 -21 28 -26 39 -8 82 10 82 34 0 24 24 27 307 38 111 4 205 11 209
16 15 15 -15 28 -102 47 l-89 18 75 0 c315 -1 377 2 389 15 17 22 -6 36 -143
88 -102 38 -120 48 -118 65 2 10 9 22 15 26 28 18 227 2 227 -17 0 -14 52 -27
75 -19 8 3 12 11 8 17 -4 7 16 8 62 4 71 -5 121 5 110 23 -4 6 -34 24 -67 41
-40 20 -57 34 -49 39 10 5 9 9 -4 13 -10 5 -14 3 -9 -4 4 -7 1 -10 -7 -7 -8 3
-13 11 -11 17 1 7 -2 10 -7 6 -21 -13 -30 32 -20 96 14 91 29 136 62 199 25
45 26 51 9 35 -12 -11 -35 -47 -51 -80 -17 -33 -31 -56 -31 -51 0 35 38 138
81 215 60 108 99 212 98 261 -1 29 -3 26 -10 -18 -10 -57 -36 -114 -110 -237
-58 -97 -84 -161 -99 -246 -22 -123 -17 -117 -50 -66 -15 24 -33 47 -38 51 -6
4 -25 31 -43 62 l-31 55 33 72 c22 48 34 90 35 127 l3 55 -8 -50 c-10 -59 -24
-97 -53 -144 l-21 -33 -24 63 c-13 35 -22 74 -20 86 2 12 -1 21 -6 20 -21 -4
-68 234 -93 465 -21 199 -30 840 -15 1046 62 795 278 1217 748 1453 l102 52
143 -5 c121 -4 155 -9 222 -32 216 -74 426 -257 755 -659 161 -197 242 -278
354 -358 227 -160 484 -169 698 -23 l77 52 115 -79 c373 -256 820 -481 1147
-579 531 -158 993 -141 1410 52 201 92 366 226 505 409 27 35 92 118 145 184
274 343 503 678 581 852 71 158 109 328 110 493 0 58 3 122 7 144 7 38 7 37
39 -60 87 -268 113 -433 113 -709 0 -118 4 -216 9 -219 12 -8 78 42 126 95 54
59 146 209 211 344 86 178 142 365 179 597 l6 38 60 -91 c121 -180 332 -369
528 -472 131 -69 231 -96 231 -62 0 8 -33 90 -74 183 -83 189 -160 392 -151
400 3 3 18 -6 33 -20 15 -15 79 -63 142 -108 291 -208 664 -390 798 -390 66 0
82 7 82 36 0 41 -24 86 -158 297 -163 255 -231 377 -303 542 -31 71 -56 131
-55 132 2 2 31 -9 67 -22 275 -109 719 -176 795 -121 16 12 -1 25 -157 129
-210 140 -209 139 -209 164 0 36 -39 173 -73 257 l-34 83 128 12 c194 18 309
52 397 118 17 13 32 28 32 33 0 17 -61 42 -210 87 -80 24 -190 66 -245 93 -96
46 -252 147 -242 156 2 3 24 8 47 12 24 4 45 12 47 17 2 6 -32 33 -74 60 -206
133 -325 314 -448 680 -132 397 -317 699 -591 966 -316 307 -667 472 -1106
519 -110 11 -290 11 -391 -1z m-4157 -3254 c0 -10 -75 -175 -102 -222 l-30
-53 -62 53 c-34 28 -85 68 -114 87 -28 19 -52 38 -52 43 0 4 12 7 28 7 33 0
234 52 282 74 37 16 50 19 50 11z m834 -257 c21 -274 27 -542 16 -732 -6 -109
-15 -207 -18 -217 -6 -16 -49 24 -252 233 -135 139 -251 260 -258 269 -11 14
-2 22 72 64 164 92 301 237 390 413 14 28 30 52 35 52 4 0 11 -37 15 -82z m73
35 c-3 -10 -5 -4 -5 12 0 17 2 24 5 18 2 -7 2 -21 0 -30z m39 -238 c23 -97 59
-196 105 -287 22 -43 39 -85 39 -93 0 -29 -133 -365 -144 -365 -2 0 1 21 5 48
14 87 9 346 -10 528 -11 99 -22 226 -25 284 -5 100 -5 101 4 30 5 -41 17 -106
26 -145z m-624 28 c-61 -150 -76 -183 -84 -183 -10 0 -128 110 -128 120 0 4
26 23 58 43 32 20 87 58 123 86 35 28 65 46 67 41 2 -5 -15 -53 -36 -107z
m4198 -119 c-13 -259 -44 -397 -131 -579 -21 -44 -57 -106 -81 -138 l-42 -58
-14 38 c-25 72 -72 264 -72 296 0 32 0 32 29 -18 32 -55 96 -133 104 -125 2 3
-2 41 -10 85 -34 187 2 348 116 525 37 58 76 119 86 137 11 18 20 31 22 30 1
-2 -2 -89 -7 -193z m-3128 72 c18 -58 20 -84 15 -168 -7 -113 -1 -116 55 -28
l29 45 -6 -40 c-4 -22 -22 -93 -41 -157 -35 -120 -40 -148 -26 -148 40 0 199
171 293 315 72 111 75 115 98 115 14 0 44 -47 116 -182 54 -101 108 -194 120
-208 41 -44 153 -238 184 -318 79 -207 57 -368 -67 -484 -94 -88 -187 -114
-376 -105 -126 5 -271 46 -344 94 -74 50 -280 213 -371 294 l-89 79 45 112
c25 62 61 158 80 213 18 55 36 106 38 114 4 9 19 1 50 -28 24 -22 48 -41 53
-41 5 0 12 71 15 158 6 162 23 273 60 401 19 66 22 71 34 55 8 -11 23 -50 35
-88z m840 -55 c6 -66 15 -121 19 -121 17 0 85 89 116 154 28 58 33 64 29 36
-32 -215 -5 -456 75 -673 37 -99 55 -136 87 -169 40 -43 49 -36 62 45 15 96
21 107 15 27 -15 -169 -68 -308 -153 -401 l-49 -53 5 85 c5 106 -18 200 -83
329 -45 90 -145 244 -217 334 -25 32 -36 55 -32 65 23 52 75 286 85 381 8 68
16 106 21 97 4 -8 13 -69 20 -136z m913 -430 c28 -144 84 -341 115 -400 10
-20 30 -42 44 -49 24 -11 28 -9 57 31 52 71 272 536 311 657 3 9 29 -32 60
-95 31 -60 86 -155 123 -209 l66 -100 -15 -100 c-52 -350 -201 -626 -433 -800
-94 -71 -248 -152 -352 -185 -310 -100 -690 -60 -1064 111 l-68 32 98 22 c402
90 607 302 742 767 31 105 81 338 81 376 0 17 11 10 56 -37 56 -56 57 -57 64
-32 5 14 13 81 20 150 6 69 18 163 28 210 l16 85 13 -150 c7 -82 24 -210 38
-284z m-308 234 l31 -76 -28 -112 c-16 -62 -41 -151 -57 -198 l-28 -84 -7 70
c-4 39 -15 120 -24 180 l-17 110 43 93 c24 50 46 92 49 92 3 0 20 -34 38 -75z
m-3237 -510 c131 -92 296 -218 639 -489 l203 -161 -49 -21 c-189 -83 -366 -34
-544 154 -97 101 -146 172 -262 375 -53 93 -105 180 -115 195 -34 50 -36 55
-16 44 11 -6 75 -49 144 -97z m4522 -244 c-118 -133 -124 -139 -118 -111 11
48 27 301 20 323 -3 13 28 -14 74 -63 l81 -84 -57 -65z m-6804 -3278 c-10 -2
-26 -2 -35 0 -10 3 -2 5 17 5 19 0 27 -2 18 -5z"/>
<path d="M3390 620 c8 -5 20 -10 25 -10 6 0 3 5 -5 10 -8 5 -19 10 -25 10 -5
0 -3 -5 5 -10z"/>
<path d="M3470 585 c14 -8 30 -14 35 -14 6 0 -1 6 -15 14 -14 8 -29 14 -35 14
-5 0 1 -6 15 -14z"/>
<path d="M150 551 c-30 -9 -64 -23 -75 -30 -20 -12 -20 -12 0 -5 11 3 52 17
90 29 39 13 63 23 55 24 -8 0 -40 -8 -70 -18z"/>
<path d="M3530 560 c8 -5 20 -10 25 -10 6 0 3 5 -5 10 -8 5 -19 10 -25 10 -5
0 -3 -5 5 -10z"/>
<path d="M3580 540 c8 -5 20 -10 25 -10 6 0 3 5 -5 10 -8 5 -19 10 -25 10 -5
0 -3 -5 5 -10z"/>
<path d="M3650 510 c8 -5 20 -10 25 -10 6 0 3 5 -5 10 -8 5 -19 10 -25 10 -5
0 -3 -5 5 -10z"/>
<path d="M24 488 l-19 -23 23 19 c21 18 27 26 19 26 -2 0 -12 -10 -23 -22z"/>
<path d="M3715 470 c-19 -8 -19 -9 3 -9 12 -1 22 4 22 9 0 6 -1 10 -2 9 -2 0
-12 -4 -23 -9z"/>
<path d="M3298 463 c17 -2 47 -2 65 0 17 2 3 4 -33 4 -36 0 -50 -2 -32 -4z"/>
<path d="M18 448 c5 -5 16 -8 23 -6 8 3 3 7 -10 11 -17 4 -21 3 -13 -5z"/>
<path d="M3443 453 c15 -2 37 -2 50 0 12 2 0 4 -28 4 -27 0 -38 -2 -22 -4z"/>
<path d="M3643 453 c9 -2 25 -2 35 0 9 3 1 5 -18 5 -19 0 -27 -2 -17 -5z"/>
<path d="M3558 443 c12 -2 30 -2 40 0 9 3 -1 5 -23 4 -22 0 -30 -2 -17 -4z"/>
<path d="M73 433 c9 -2 23 -2 30 0 6 3 -1 5 -18 5 -16 0 -22 -2 -12 -5z"/>
<path d="M158 423 c23 -2 59 -2 80 0 20 2 1 4 -43 4 -44 0 -61 -2 -37 -4z"/>
<path d="M308 413 c12 -2 32 -2 45 0 12 2 2 4 -23 4 -25 0 -35 -2 -22 -4z"/>
<path d="M3310 410 c8 -5 20 -10 25 -10 6 0 3 5 -5 10 -8 5 -19 10 -25 10 -5
0 -3 -5 5 -10z"/>
<path d="M407 403 c18 -2 50 -2 70 0 21 2 7 4 -32 4 -38 0 -55 -2 -38 -4z"/>
<path d="M558 393 c12 -2 30 -2 40 0 9 3 -1 5 -23 4 -22 0 -30 -2 -17 -4z"/>
<path d="M643 383 c15 -2 37 -2 50 0 12 2 0 4 -28 4 -27 0 -38 -2 -22 -4z"/>
<path d="M738 373 c12 -2 30 -2 40 0 9 3 -1 5 -23 4 -22 0 -30 -2 -17 -4z"/>
<path d="M3460 359 c56 -17 100 -38 100 -48 0 -9 -73 -36 -120 -44 -22 -4 -21
-4 5 -5 41 -1 120 30 120 48 0 19 -51 47 -100 53 l-40 6 35 -10z"/>
<path d="M778 343 c6 -2 18 -2 25 0 6 3 1 5 -13 5 -14 0 -19 -2 -12 -5z"/>
<path d="M708 333 c12 -2 30 -2 40 0 9 3 -1 5 -23 4 -22 0 -30 -2 -17 -4z"/>
<path d="M658 323 c7 -3 16 -2 19 1 4 3 -2 6 -13 5 -11 0 -14 -3 -6 -6z"/>
<path d="M618 313 c7 -3 16 -2 19 1 4 3 -2 6 -13 5 -11 0 -14 -3 -6 -6z"/>
<path d="M559 290 c-21 -17 -22 -21 -9 -30 23 -15 36 -12 15 4 -18 13 -17 14
11 29 16 9 24 16 18 17 -7 0 -22 -9 -35 -20z"/>
<path d="M3373 253 c9 -2 23 -2 30 0 6 3 -1 5 -18 5 -16 0 -22 -2 -12 -5z"/>
<path d="M598 243 c6 -2 18 -2 25 0 6 3 1 5 -13 5 -14 0 -19 -2 -12 -5z"/>
<path d="M3293 243 c9 -2 25 -2 35 0 9 3 1 5 -18 5 -19 0 -27 -2 -17 -5z"/>
<path d="M648 233 c6 -2 18 -2 25 0 6 3 1 5 -13 5 -14 0 -19 -2 -12 -5z"/>
<path d="M708 223 c12 -2 32 -2 45 0 12 2 2 4 -23 4 -25 0 -35 -2 -22 -4z"/>
<path d="M798 213 c12 -2 30 -2 40 0 9 3 -1 5 -23 4 -22 0 -30 -2 -17 -4z"/>
<path d="M878 203 c12 -2 32 -2 45 0 12 2 2 4 -23 4 -25 0 -35 -2 -22 -4z"/>
<path d="M3330 195 c14 -8 30 -14 35 -14 6 0 -1 6 -15 14 -14 8 -29 14 -35 14
-5 0 1 -6 15 -14z"/>
<path d="M973 193 c9 -2 25 -2 35 0 9 3 1 5 -18 5 -19 0 -27 -2 -17 -5z"/>
<path d="M1058 183 c12 -2 32 -2 45 0 12 2 2 4 -23 4 -25 0 -35 -2 -22 -4z"/>
<path d="M1138 173 c7 -3 16 -2 19 1 4 3 -2 6 -13 5 -11 0 -14 -3 -6 -6z"/>
<path d="M3273 173 c15 -2 37 -2 50 0 12 2 0 4 -28 4 -27 0 -38 -2 -22 -4z"/>
<path d="M1190 160 c34 -11 60 -11 35 0 -11 5 -29 8 -40 8 -16 0 -15 -2 5 -8z"/>
<path d="M2873 163 c65 -2 168 -2 230 0 62 1 9 3 -118 3 -126 0 -177 -2 -112
-3z"/>
<path d="M2718 153 c7 -3 16 -2 19 1 4 3 -2 6 -13 5 -11 0 -14 -3 -6 -6z"/>
<path d="M1258 143 c6 -2 18 -2 25 0 6 3 1 5 -13 5 -14 0 -19 -2 -12 -5z"/>
<path d="M2630 135 c-47 -18 -27 -18 30 -1 25 8 36 15 25 15 -11 0 -36 -7 -55
-14z"/>
<path d="M1308 133 c7 -3 16 -2 19 1 4 3 -2 6 -13 5 -11 0 -14 -3 -6 -6z"/>
<path d="M1360 120 c34 -11 60 -11 35 0 -11 5 -29 8 -40 8 -16 0 -15 -2 5 -8z"/>
<path d="M1428 103 c6 -2 18 -2 25 0 6 3 1 5 -13 5 -14 0 -19 -2 -12 -5z"/>
<path d="M2520 100 c-18 -12 -2 -12 25 0 13 6 15 9 5 9 -8 0 -22 -4 -30 -9z"/>
<path d="M1478 93 c7 -3 16 -2 19 1 4 3 -2 6 -13 5 -11 0 -14 -3 -6 -6z"/>
<path d="M2118 93 c17 -2 47 -2 65 0 17 2 3 4 -33 4 -36 0 -50 -2 -32 -4z"/>
<path d="M1523 83 c9 -2 23 -2 30 0 6 3 -1 5 -18 5 -16 0 -22 -2 -12 -5z"/>
<path d="M1978 83 c17 -2 47 -2 65 0 17 2 3 4 -33 4 -36 0 -50 -2 -32 -4z"/>
<path d="M1588 73 c12 -2 30 -2 40 0 9 3 -1 5 -23 4 -22 0 -30 -2 -17 -4z"/>
<path d="M1853 73 c15 -2 39 -2 55 0 15 2 2 4 -28 4 -30 0 -43 -2 -27 -4z"/>
<path d="M2435 70 c-13 -6 -15 -9 -5 -9 8 0 22 4 30 9 18 12 2 12 -25 0z"/>
<path d="M1698 63 c23 -2 59 -2 80 0 20 2 1 4 -43 4 -44 0 -61 -2 -37 -4z"/>
<path d="M2240 60 c-21 -7 -21 -8 -5 -9 11 0 27 4 35 9 18 11 5 11 -30 0z"/>
<path d="M2178 43 c6 -2 18 -2 25 0 6 3 1 5 -13 5 -14 0 -19 -2 -12 -5z"/>
<path d="M2335 40 c-13 -5 -14 -9 -5 -9 8 0 24 4 35 9 13 5 14 9 5 9 -8 0 -24
-4 -35 -9z"/>
<path d="M2093 33 c15 -2 37 -2 50 0 12 2 0 4 -28 4 -27 0 -38 -2 -22 -4z"/>
<path d="M2040 20 c8 -5 24 -9 35 -9 l20 0 -20 9 c-11 5 -27 9 -35 9 -13 1
-13 0 0 -9z"/>
<path d="M2273 23 c9 -2 23 -2 30 0 6 3 -1 5 -18 5 -16 0 -22 -2 -12 -5z"/>
<path d="M2198 13 c12 -2 30 -2 40 0 9 3 -1 5 -23 4 -22 0 -30 -2 -17 -4z"/>
</g>
</svg>
