<?xml version="1.0" standalone="no"?>
<!DOCTYPE svg PUBLIC "-//W3C//DTD SVG 20010904//EN"
 "http://www.w3.org/TR/2001/REC-SVG-20010904/DTD/svg10.dtd">
<svg version="1.0" xmlns="http://www.w3.org/2000/svg"
 width="698.000000pt" height="342.000000pt" viewBox="0 0 698.000000 342.000000"
 preserveAspectRatio="xMidYMid meet">

<g transform="translate(0.000000,342.000000) scale(0.100000,-0.100000)"
fill="#000000" stroke="none">
<path d="M255 3400 c-66 -4 -142 -9 -170 -10 -159 -9 496 -30 1220 -39 1144
-16 1505 -26 1690 -51 136 -17 294 -46 302 -54 2 -1 -41 -20 -95 -41 -53 -21
-136 -55 -183 -77 -48 -21 -98 -38 -111 -38 -14 0 -76 24 -139 54 -201 95
-333 122 -547 113 -249 -11 -447 -73 -634 -197 -252 -167 -429 -412 -528 -731
-113 -365 -154 -476 -241 -649 -92 -184 -123 -262 -134 -345 l-8 -50 35 50
c60 86 138 132 378 224 58 22 192 74 299 116 107 42 296 112 420 156 290 104
375 144 488 230 244 186 485 524 618 867 20 51 39 81 60 98 56 42 184 93 402
158 20 6 24 1 42 -57 27 -87 41 -198 41 -319 l0 -101 -48 -46 c-27 -25 -86
-80 -132 -121 -140 -125 -242 -282 -309 -474 -58 -164 -75 -297 -60 -458 21
-222 87 -406 242 -675 143 -250 283 -572 367 -843 l23 -75 12 71 c29 164 87
310 280 693 191 380 246 515 286 696 19 85 16 282 -6 385 -59 286 -196 507
-449 725 -58 50 -109 101 -115 115 -43 100 -39 329 8 452 l10 26 73 -22 c139
-43 283 -99 320 -125 30 -21 44 -43 69 -106 76 -188 223 -446 338 -590 60 -74
206 -217 284 -277 100 -77 194 -123 392 -193 219 -78 532 -195 662 -249 59
-24 153 -61 208 -81 55 -21 126 -51 158 -67 57 -28 148 -108 179 -158 15 -24
15 -23 7 29 -13 85 -36 144 -133 341 -89 179 -128 286 -246 665 -65 207 -171
391 -310 538 -233 246 -551 377 -914 377 -170 0 -321 -37 -481 -117 -140 -71
-136 -71 -294 -4 -75 32 -164 69 -199 81 -34 13 -61 25 -59 27 7 7 157 33 309
53 190 26 501 35 1668 50 476 7 971 17 1100 24 l235 12 -140 10 c-77 5 -725 9
-1440 9 -1414 0 -1381 1 -1660 -58 -183 -39 -280 -41 -415 -10 -137 32 -257
50 -403 62 -142 12 -2418 12 -2622 1z m2237 -223 c54 -14 104 -29 112 -34 8
-4 -49 -8 -127 -8 -105 0 -161 -5 -214 -18 l-72 -19 -65 26 c-35 14 -102 32
-148 39 l-83 14 80 16 c127 26 390 18 517 -16z m2501 13 c26 -6 47 -16 47 -21
0 -6 -8 -8 -18 -5 -27 9 -125 -10 -197 -39 l-66 -27 -72 19 c-54 13 -109 18
-219 18 -81 0 -141 3 -134 7 11 6 182 51 236 61 46 9 374 -1 423 -13z m-2984
-60 c29 -5 71 -18 94 -28 l41 -18 -64 -31 c-36 -16 -100 -56 -144 -87 l-78
-57 -75 17 c-82 18 -198 14 -279 -11 -50 -15 -49 -8 9 44 88 80 217 157 287
172 53 10 151 10 209 -1z m3226 -34 c71 -35 202 -131 235 -171 14 -17 13 -18
-10 -12 -14 4 -66 12 -117 19 -90 12 -104 11 -233 -17 -19 -4 -44 8 -109 55
-46 33 -110 72 -143 87 -58 27 -58 27 -33 40 53 28 140 43 237 39 89 -3 105
-6 173 -40z m-2552 -3 c23 -7 13 -11 -62 -21 -108 -14 -290 -73 -421 -134
-135 -64 -310 -206 -452 -369 -52 -59 -201 -269 -195 -275 1 -1 103 31 227 71
124 40 292 94 373 120 262 84 420 177 591 348 l88 89 -38 -73 c-25 -48 -67
-104 -119 -157 -179 -187 -341 -274 -714 -382 -76 -22 -225 -67 -331 -100
-106 -33 -195 -58 -198 -55 -3 3 7 42 22 87 127 386 423 706 761 823 97 33
185 45 315 40 69 -2 138 -8 153 -12z m2010 -17 c293 -87 582 -348 726 -657 43
-93 104 -259 97 -266 -2 -3 -91 22 -198 55 -106 33 -278 86 -383 117 -416 123
-672 299 -795 545 -22 43 -19 42 76 -50 55 -53 129 -117 166 -143 90 -65 267
-147 418 -196 69 -22 230 -73 358 -114 127 -41 232 -71 232 -68 0 4 -27 47
-60 95 -220 322 -472 522 -787 625 -93 30 -229 60 -287 62 -23 1 -16 5 29 15
98 22 300 12 408 -20z m-1956 -112 c9 -24 -6 -62 -27 -69 -50 -16 -82 48 -39
78 23 17 58 11 66 -9z m1554 -6 c22 -41 -18 -81 -60 -59 -31 17 -37 52 -12 72
25 20 57 15 72 -13z m-1718 -28 c49 -39 43 -104 -15 -140 -93 -58 -186 54
-109 131 36 35 86 39 124 9z m1906 5 c62 -31 63 -113 2 -149 -43 -25 -98 -10
-124 33 -50 85 32 163 122 116z m-2706 -34 c21 -5 41 -12 44 -15 4 -3 -36 -50
-88 -103 -52 -54 -105 -114 -118 -134 l-25 -37 -75 5 c-81 6 -171 -12 -245
-48 -22 -10 -41 -17 -43 -16 -5 6 99 182 146 244 37 51 55 65 94 79 93 31 233
43 310 25z m3687 -19 c61 -17 68 -22 116 -86 45 -59 144 -223 144 -238 0 -3
-26 5 -57 18 -84 34 -158 47 -235 42 l-68 -5 -42 56 c-23 31 -78 93 -121 137
l-78 82 38 11 c54 15 226 6 303 -17z m-3129 -33 c31 -12 59 -57 59 -96 0 -67
-62 -123 -136 -123 -34 0 -51 6 -76 29 -29 26 -33 36 -33 80 0 41 5 55 30 81
45 47 87 55 156 29z m2420 -12 c68 -45 71 -148 6 -187 -38 -24 -85 -25 -133
-5 -49 20 -80 90 -64 140 6 19 23 44 37 55 36 28 109 27 154 -3z m-431 -235
c48 -42 101 -89 118 -105 24 -20 32 -35 32 -61 0 -39 33 -152 62 -211 18 -37
14 -35 -54 35 -41 41 -97 111 -126 155 -51 78 -172 305 -172 322 1 4 13 -7 27
-25 15 -18 66 -68 113 -110z m-1616 6 c-32 -62 -84 -151 -115 -198 -55 -82
-177 -225 -185 -217 -3 2 6 28 20 58 25 57 56 171 56 206 0 13 28 44 78 86 42
36 104 93 136 126 33 33 62 59 64 57 2 -3 -22 -55 -54 -118z m-613 73 c33 -33
36 -60 12 -101 -32 -54 -94 -65 -142 -24 -43 36 -42 75 3 120 44 44 86 46 127
5z m2879 7 c37 -25 53 -67 40 -102 -12 -32 -34 -47 -79 -53 -35 -5 -44 -2 -71
25 -46 47 -40 109 15 140 30 17 59 14 95 -10z m-3410 -104 c0 -4 -15 -32 -34
-63 -19 -31 -53 -94 -76 -142 l-42 -85 -78 -10 c-53 -7 -103 -23 -155 -47 -42
-21 -78 -37 -80 -37 -5 0 43 145 75 228 30 77 32 79 88 107 31 16 75 34 97 41
41 13 205 19 205 8z m4031 -10 c82 -25 147 -61 163 -92 22 -43 98 -273 92
-279 -3 -3 -17 2 -31 11 -45 30 -149 64 -214 72 l-62 7 -41 81 c-22 44 -55
106 -74 137 -19 31 -34 62 -34 68 0 17 138 14 201 -5z m-3683 -41 c4 -36 -24
-59 -58 -48 -25 8 -34 39 -20 65 9 16 19 20 43 18 28 -3 32 -7 35 -35z m1812
-146 c131 -268 116 -594 -46 -991 -51 -124 -142 -306 -153 -306 -11 0 -144
241 -186 337 -163 373 -185 667 -70 919 33 73 103 189 110 182 2 -2 -5 -30
-15 -62 -35 -106 -53 -266 -48 -436 5 -137 9 -171 41 -290 36 -136 145 -480
152 -480 7 0 103 256 129 345 110 380 107 622 -15 885 l-39 85 50 -53 c28 -29
67 -89 90 -135z m1388 171 c19 -19 14 -56 -9 -68 -16 -9 -26 -8 -45 5 -39 26
-26 75 21 75 12 0 26 -5 33 -12z m-1577 -48 c37 -20 21 -80 -22 -80 -41 0 -61
41 -34 70 21 23 29 24 56 10z m-266 -95 c-42 -70 -71 -146 -92 -237 -12 -52
-21 -71 -41 -84 -44 -29 -121 -105 -143 -141 -12 -19 -23 -32 -25 -30 -8 8 46
149 87 227 23 45 63 110 88 144 53 72 153 188 158 182 2 -1 -12 -29 -32 -61z
m-1491 39 c8 -21 -11 -44 -36 -44 -21 0 -33 22 -24 45 7 20 52 19 60 -1z
m3455 2 c17 -20 2 -46 -25 -46 -26 0 -40 20 -30 45 7 19 40 20 55 1z m-1345
-182 c30 -39 71 -100 90 -136 37 -67 100 -227 93 -235 -3 -2 -14 12 -26 31
-26 41 -130 140 -170 160 -24 13 -32 30 -59 126 -18 61 -45 138 -62 172 -16
33 -30 63 -30 67 1 10 105 -107 164 -185z m-1439 134 c-16 -93 -84 -245 -128
-287 -25 -22 -198 -113 -205 -107 -2 3 5 33 17 68 11 35 29 103 39 151 l18 88
76 33 c42 18 98 47 124 64 27 17 53 31 57 31 5 1 6 -18 2 -41z m2123 3 c37
-21 95 -49 128 -62 l62 -24 22 -105 c12 -58 31 -127 41 -155 11 -27 19 -51 19
-52 0 -6 -108 42 -156 71 -65 39 -105 94 -149 203 -22 55 -47 163 -38 163 3 0
35 -17 71 -39z m-1024 -42 c37 -17 59 -69 45 -108 -12 -33 -53 -61 -89 -61
-12 0 -35 13 -51 29 -45 45 -37 105 19 135 33 19 44 19 76 5z m-1399 -116 c-8
-70 -60 -237 -78 -251 -12 -10 -242 -92 -258 -92 -5 0 -2 14 7 32 31 59 52
135 59 210 l7 75 127 41 c69 22 130 40 135 41 4 1 5 -25 1 -56z m2799 11 l126
-38 0 -56 c0 -65 21 -154 51 -211 11 -23 18 -43 15 -46 -3 -3 -62 14 -132 38
-126 44 -127 44 -146 86 -20 46 -51 161 -62 232 -5 35 -4 42 8 38 7 -3 70 -23
140 -43z m-3558 -21 c-76 -204 -68 -192 -222 -355 -79 -84 -149 -154 -154
-156 -6 -2 -8 15 -4 45 9 76 65 345 75 365 22 42 197 117 273 118 32 0 37 -3
32 -17z m4272 7 c47 -11 154 -61 189 -88 17 -14 28 -46 52 -162 16 -80 33
-174 37 -210 l7 -65 -23 20 c-12 11 -81 82 -152 157 -129 137 -130 137 -173
248 l-43 110 31 0 c18 0 51 -5 75 -10z m-3808 -87 c0 -65 -21 -139 -60 -212
l-33 -61 -131 -41 c-72 -22 -137 -42 -143 -44 -17 -6 -16 -2 7 38 32 53 61
145 68 212 l7 60 130 47 c72 26 136 47 143 48 8 0 12 -16 12 -47z m3366 11
c55 -20 113 -41 130 -46 29 -10 31 -14 43 -86 6 -42 27 -112 46 -156 19 -44
33 -81 32 -82 -1 -1 -65 19 -142 44 l-140 47 -33 62 c-49 93 -79 253 -48 253
8 0 58 -16 112 -36z m-1635 -47 c25 -19 39 -53 39 -95 0 -100 -123 -147 -194
-73 -64 66 -33 171 57 191 33 7 70 -2 98 -23z m-2051 -72 c0 -50 -34 -150 -74
-218 -22 -38 -34 -48 -69 -58 -86 -23 -249 -58 -304 -65 l-57 -7 152 159 152
158 92 37 c51 21 96 38 101 38 4 1 7 -19 7 -44z m3993 5 l88 -33 150 -156 c96
-101 143 -157 134 -159 -15 -3 -274 48 -346 68 -32 9 -41 19 -73 83 -55 108
-86 247 -53 235 6 -3 52 -20 100 -38z m-2373 -60 c0 -38 5 -102 11 -142 l11
-73 -69 -71 c-38 -39 -84 -100 -102 -134 -33 -61 -35 -63 -44 -39 -5 13 -12
79 -15 145 l-4 122 33 63 c32 60 151 199 170 199 5 0 9 -31 9 -70z m804 -12
c54 -55 91 -103 110 -143 27 -57 28 -64 24 -170 -3 -62 -10 -120 -16 -130 -9
-16 -12 -14 -31 23 -28 55 -114 158 -155 184 l-33 22 1 148 c0 81 5 148 10
148 5 0 45 -37 90 -82z m-387 -140 c30 -34 34 -55 19 -93 -27 -64 -97 -75
-141 -23 -50 60 -14 138 64 138 26 0 44 -7 58 -22z m-377 -123 c0 -8 19 -71
42 -140 l42 -124 -50 -49 c-53 -50 -98 -119 -119 -180 l-13 -36 -22 44 c-12
23 -38 84 -57 134 -32 83 -34 94 -23 126 20 55 77 140 133 197 49 50 67 58 67
28z m744 -56 c41 -45 112 -150 121 -180 6 -18 -62 -235 -89 -287 -12 -23 -14
-21 -35 36 -25 69 -95 167 -140 197 -20 13 -29 25 -25 35 7 18 60 214 68 253
l7 28 28 -20 c15 -11 45 -39 65 -62z m-388 -34 c4 -15 1 -32 -6 -40 -18 -21
-57 -19 -70 5 -16 30 4 60 40 60 23 0 31 -5 36 -25z m-11 -155 c0 -18 -6 -26
-23 -28 -13 -2 -25 3 -28 12 -10 26 4 48 28 44 17 -2 23 -10 23 -28z m-190
-185 l58 -134 -35 -39 c-45 -50 -83 -115 -99 -169 -7 -24 -15 -43 -19 -43 -4
0 -31 44 -60 98 -29 53 -60 108 -68 121 -17 29 -12 60 25 137 23 50 117 164
135 164 2 0 31 -61 63 -135z m497 51 c43 -57 80 -141 85 -190 3 -36 -4 -56
-64 -159 l-67 -119 -17 49 c-24 72 -63 143 -101 187 l-34 40 55 137 55 138 29
-21 c16 -11 42 -39 59 -62z m-376 -310 l44 -93 0 -209 0 -209 -25 30 c-14 17
-68 93 -120 170 l-95 140 16 55 c8 30 27 74 41 98 23 41 80 112 90 112 2 0 24
-42 49 -94z m200 52 c32 -39 78 -135 95 -199 l12 -47 -48 -68 c-27 -38 -78
-106 -114 -151 l-66 -83 -3 198 -2 197 42 92 c24 51 46 93 50 93 3 0 19 -15
34 -32z"/>
</g>
</svg>
