<?xml version="1.0" standalone="no"?>
<!DOCTYPE svg PUBLIC "-//W3C//DTD SVG 20010904//EN"
 "http://www.w3.org/TR/2001/REC-SVG-20010904/DTD/svg10.dtd">
<svg version="1.0" xmlns="http://www.w3.org/2000/svg"
 width="834.000000pt" height="173.000000pt" viewBox="0 0 834.000000 173.000000"
 preserveAspectRatio="xMidYMid meet">

<g transform="translate(0.000000,173.000000) scale(0.100000,-0.100000)"
fill="#000000" stroke="none">
<path d="M4080 1704 c-95 -26 -169 -86 -218 -179 -37 -72 -43 -197 -12 -277
28 -75 98 -149 175 -185 52 -24 72 -28 150 -28 110 1 165 23 242 102 72 73 96
140 91 253 -5 90 -23 139 -77 208 -37 47 -113 93 -179 108 -71 17 -103 17
-172 -2z m220 -115 c48 -27 70 -66 70 -124 0 -41 -5 -52 -38 -85 -50 -50 -96
-60 -154 -31 -111 53 -104 202 12 253 29 13 73 8 110 -13z"/>
<path d="M3680 1384 c-142 -42 -571 -219 -842 -347 l-117 -55 -82 54 c-199
131 -516 202 -771 174 -164 -18 -275 -51 -426 -127 l-133 -67 -122 32 c-188
48 -265 55 -486 49 -211 -6 -333 -25 -459 -73 -218 -81 -289 -228 -174 -356
118 -132 379 -219 776 -258 144 -14 491 -14 634 0 l113 12 74 -70 c225 -214
493 -317 855 -329 146 -5 192 -2 405 26 367 47 883 111 900 111 36 0 10 17
-44 29 -114 25 -329 150 -489 283 -88 74 -405 366 -410 378 -2 6 329 167 488
235 104 45 280 106 376 129 l71 17 -13 37 c-7 20 -13 61 -14 90 0 35 -4 52
-12 51 -7 0 -51 -11 -98 -25z m-1470 -223 c22 -8 22 -10 5 -10 -41 -2 -140
-32 -201 -62 -60 -30 -64 -30 -121 -18 -32 7 -116 15 -188 18 l-130 6 70 22
c68 21 193 48 265 57 58 7 273 -2 300 -13z m261 -88 l113 -57 -95 -17 c-52 -9
-123 -28 -158 -42 l-64 -26 -86 43 c-47 24 -104 49 -126 56 -60 19 -61 25 -6
49 81 34 151 50 233 50 75 1 81 -1 189 -56z m-648 -18 c264 -46 513 -199 843
-518 94 -90 131 -133 122 -138 -21 -11 -222 -29 -332 -29 -209 0 -451 42 -614
106 -140 56 -296 176 -398 307 l-49 62 38 -28 c114 -86 331 -203 464 -250 121
-44 551 -117 685 -117 l49 0 -83 73 c-224 195 -401 321 -559 396 -148 72 -233
92 -414 98 -158 6 -163 11 -40 38 81 18 185 18 288 0z m-802 -11 c45 -8 118
-26 160 -40 90 -28 102 -41 148 -158 38 -94 83 -184 127 -254 24 -36 30 -54
22 -57 -20 -6 -211 -23 -343 -31 -143 -7 -416 10 -570 36 -260 44 -457 140
-480 233 -23 88 83 175 282 232 186 53 485 71 654 39z m1624 -80 c45 -30 195
-157 195 -164 0 -3 -37 -6 -81 -7 -61 -1 -101 -8 -155 -28 l-73 -27 -93 70
c-51 38 -103 75 -115 83 -31 19 -29 23 15 42 61 26 109 38 180 47 37 4 72 8
78 9 6 0 28 -11 49 -25z m-1107 -16 c30 -30 0 -75 -43 -64 -25 6 -43 45 -30
65 9 15 58 14 73 -1z m197 -43 c53 -52 20 -125 -55 -125 -76 0 -119 81 -70
130 29 29 94 27 125 -5z m225 -60 c68 -35 82 -115 30 -167 -28 -28 -35 -30
-81 -26 -85 8 -137 80 -109 149 23 54 100 75 160 44z m972 -132 c33 -32 77
-78 98 -103 l38 -45 -92 -1 c-59 -1 -110 -8 -146 -21 l-55 -18 -108 94 c-61
53 -104 98 -100 102 26 26 123 48 211 49 l93 0 61 -57z m-1282 -169 c39 -26
70 -54 70 -61 0 -28 40 -125 70 -169 17 -26 29 -48 27 -50 -2 -2 -42 32 -90
76 -88 82 -165 178 -229 285 -76 128 -75 134 6 48 42 -44 108 -103 146 -129z
m554 155 c32 -38 33 -60 2 -95 -34 -40 -90 -38 -128 5 -34 39 -35 65 -3 96 37
38 95 35 129 -6z m117 -88 c20 -16 22 -23 13 -38 -22 -36 -84 -24 -84 16 0 20
19 41 36 41 6 0 22 -9 35 -19z m129 -67 c11 -12 11 -18 -2 -30 -12 -13 -20
-14 -37 -5 -21 12 -27 31 -14 44 11 12 40 7 53 -9z m764 -141 c64 -75 114
-138 112 -140 -5 -5 -50 6 -235 59 -144 42 -144 42 -217 107 -40 37 -73 69
-73 73 -2 17 100 37 195 37 l101 1 117 -137z m-1319 14 c28 -9 69 -21 92 -27
37 -9 43 -15 56 -54 18 -53 73 -140 123 -196 l37 -41 -29 6 c-142 32 -257 88
-313 152 -45 52 -111 174 -111 205 0 17 3 17 48 -5 26 -14 70 -31 97 -40z
m280 -62 c55 -8 119 -15 142 -15 42 0 42 0 74 -67 21 -45 54 -90 95 -130 l62
-63 -81 0 c-45 0 -113 3 -151 7 -65 6 -71 9 -114 52 -81 84 -168 232 -134 231
4 0 52 -7 107 -15z m836 -33 c30 -10 110 -34 179 -52 69 -18 129 -37 134 -41
11 -10 -186 -73 -296 -94 l-87 -18 -48 32 c-26 17 -57 39 -68 49 -35 30 -95
105 -95 118 0 28 205 32 281 6z m-298 -27 c22 -47 82 -111 140 -150 l48 -32
-28 -6 c-15 -3 -83 -11 -150 -18 l-122 -12 -51 39 c-27 21 -63 54 -79 74 -30
38 -71 112 -71 130 0 6 52 10 148 10 l148 0 17 -35z"/>
<path d="M4560 1363 c-1 -27 -7 -66 -15 -88 -8 -22 -15 -41 -15 -42 0 -1 19
-7 43 -13 101 -26 240 -71 337 -110 142 -57 551 -251 548 -261 -5 -13 -271
-258 -383 -353 -188 -159 -397 -283 -521 -309 -30 -6 -54 -14 -54 -17 0 -7
110 -21 635 -85 154 -19 330 -41 390 -50 139 -19 341 -19 470 0 286 41 509
146 692 326 l62 61 113 -12 c142 -14 477 -14 628 0 394 37 657 123 778 254 97
105 75 219 -59 306 -126 81 -298 119 -574 127 -222 6 -280 0 -478 -49 l-129
-32 -106 56 c-204 107 -344 142 -567 141 -259 0 -517 -75 -686 -198 l-48 -36
-68 34 c-178 90 -704 311 -847 356 -156 49 -146 49 -146 -6z m2005 -212 c50
-11 115 -28 145 -39 l55 -21 -101 0 c-56 -1 -141 -8 -189 -16 l-88 -16 -71 35
c-39 19 -102 41 -141 49 -65 13 -68 15 -35 21 19 3 46 8 60 10 53 10 279 -5
365 -23z m-393 -32 c58 -12 168 -57 168 -69 0 -4 -16 -11 -35 -14 -19 -4 -80
-29 -135 -57 -94 -47 -101 -49 -127 -35 -45 22 -153 53 -218 61 -56 7 -58 8
-40 22 11 9 61 35 110 59 79 38 99 44 157 44 37 0 91 -5 120 -11z m683 -76
l60 -20 -150 -5 c-175 -7 -262 -27 -400 -92 -158 -74 -363 -219 -578 -408
l-78 -68 45 0 c130 0 558 71 682 114 124 42 373 175 469 250 l40 31 -47 -60
c-201 -263 -490 -391 -928 -412 -131 -6 -389 10 -418 26 -9 5 26 45 115 131
337 323 580 475 842 525 100 19 266 13 346 -12z m1019 -13 c410 -88 508 -262
221 -396 -248 -115 -679 -159 -1120 -113 -55 6 -106 12 -113 15 -9 3 -4 17 18
50 18 25 54 93 81 152 114 245 106 234 178 260 144 51 231 62 441 58 148 -4
219 -10 294 -26z m-1984 -62 c62 -11 150 -46 150 -59 0 -5 -10 -14 -22 -20
-13 -7 -64 -43 -115 -81 l-92 -69 -73 26 c-54 20 -94 27 -155 28 -46 1 -83 3
-83 4 0 7 101 95 162 141 77 58 79 58 228 30z m988 -34 c3 -23 -21 -54 -42
-54 -7 0 -21 6 -31 14 -17 12 -18 17 -7 41 10 22 18 26 45 23 24 -2 33 -8 35
-24z m-148 -24 c57 -57 -13 -152 -94 -129 -93 27 -63 149 35 149 26 0 46 -7
59 -20z m-236 -60 c62 -23 70 -118 15 -164 -37 -32 -68 -40 -114 -32 -61 12
-95 89 -64 147 25 48 104 72 163 49z m-761 -108 c27 -12 46 -25 43 -30 -3 -5
-52 -49 -108 -98 l-103 -89 -55 18 c-34 12 -88 19 -142 20 -48 1 -88 5 -88 9
0 4 42 51 94 104 l93 97 109 -5 c82 -3 121 -10 157 -26z m1151 -44 c-71 -140
-218 -324 -327 -410 l-42 -33 23 35 c32 48 73 139 79 175 4 23 21 41 75 80 39
28 103 85 142 127 39 42 72 77 74 77 1 1 -10 -23 -24 -51z m-615 6 c12 -15 21
-33 21 -40 0 -50 -65 -101 -115 -88 -36 9 -68 52 -60 84 16 68 113 96 154 44z
m-185 -96 c15 -24 -3 -52 -37 -56 -35 -4 -52 26 -31 57 18 26 51 25 68 -1z
m-137 -64 c8 -21 -19 -46 -40 -38 -17 6 -23 35 -10 47 12 13 44 7 50 -9z
m-459 -19 c29 -9 52 -17 52 -19 0 -2 -30 -34 -67 -70 -65 -63 -72 -68 -178
-101 -101 -31 -264 -75 -280 -75 -8 0 47 70 150 188 l80 92 96 0 c57 0 116 -6
147 -15z m1068 -149 c-76 -154 -175 -223 -390 -271 -27 -6 -26 -4 23 52 49 54
121 179 121 209 0 7 19 18 43 24 71 19 160 50 197 70 49 26 51 6 6 -84z m-276
-18 c0 -25 -80 -154 -127 -207 -56 -63 -81 -69 -256 -70 l-108 -1 61 56 c44
41 70 77 96 130 l35 74 47 1 c26 0 83 6 127 13 108 18 125 18 125 4z m-702
-26 l44 -7 -33 -45 c-40 -56 -91 -103 -147 -137 l-43 -26 -84 17 c-111 22
-310 85 -299 95 5 4 65 22 134 41 69 18 148 41 175 51 52 18 172 23 253 11z
m357 -38 c-24 -58 -84 -132 -141 -176 l-53 -40 -128 12 c-170 16 -175 19 -124
54 53 37 117 107 138 151 l17 35 153 0 153 0 -15 -36z"/>
</g>
</svg>
