<?xml version="1.0" standalone="no"?>
<!DOCTYPE svg PUBLIC "-//W3C//DTD SVG 20010904//EN"
 "http://www.w3.org/TR/2001/REC-SVG-20010904/DTD/svg10.dtd">
<svg version="1.0" xmlns="http://www.w3.org/2000/svg"
 width="594.000000pt" height="230.000000pt" viewBox="0 0 594.000000 230.000000"
 preserveAspectRatio="xMidYMid meet">

<g transform="translate(0.000000,230.000000) scale(0.100000,-0.100000)"
fill="#000000" stroke="none">
<path d="M4820 2279 c-404 -49 -859 -205 -1265 -434 -77 -43 -246 -149 -375
-235 -262 -175 -385 -250 -542 -334 l-106 -57 -34 21 c-46 28 -99 26 -137 -5
-30 -26 -57 -87 -47 -104 12 -18 -288 -127 -473 -171 l-95 -23 -15 24 c-79
121 -244 133 -339 25 -18 -21 -35 -51 -39 -67 l-5 -29 -90 0 c-111 0 -250 15
-395 41 l-113 21 0 50 c0 81 -19 128 -75 183 -55 56 -102 75 -182 75 -67 0
-148 -42 -188 -97 -16 -23 -36 -42 -43 -42 -7 -1 -35 10 -63 24 -62 32 -102
47 -95 37 2 -4 40 -25 84 -46 76 -37 80 -41 71 -63 -35 -94 29 -233 133 -290
50 -27 170 -24 224 4 44 23 114 97 114 120 0 17 -1 17 110 -8 123 -26 281 -49
351 -49 31 0 77 -3 103 -6 43 -6 47 -9 56 -44 5 -20 20 -52 32 -71 27 -39 117
-89 162 -89 116 0 215 95 216 205 l0 40 108 23 c114 25 282 77 398 123 l71 28
42 -21 c37 -18 47 -19 81 -9 46 14 90 62 90 99 0 24 11 33 103 79 142 72 346
196 582 352 557 370 1041 573 1539 646 508 74 971 -37 1086 -261 35 -68 35
-188 1 -253 -49 -94 -171 -196 -305 -255 -110 -49 -206 -64 -464 -76 -275 -12
-246 -17 -384 77 -180 122 -336 171 -574 180 -230 9 -394 -23 -579 -111 -249
-119 -435 -310 -565 -581 -153 -318 -226 -562 -246 -820 l-7 -90 45 65 c136
199 392 300 903 355 176 19 308 45 386 74 223 85 496 341 723 681 31 47 69 91
83 99 51 26 205 51 323 51 180 0 302 26 434 93 302 150 392 420 208 618 -65
71 -143 120 -254 160 -156 57 -242 71 -478 74 -118 2 -249 -1 -290 -6z m-652
-699 c45 -6 121 -22 169 -36 92 -27 237 -84 230 -90 -2 -3 -31 3 -63 12 -42
12 -103 17 -209 18 -141 1 -153 3 -205 28 -53 27 -153 57 -195 59 -11 1 -4 5
15 9 54 11 166 11 258 0z m-214 -45 c32 -8 80 -25 108 -37 53 -23 51 -30 -12
-43 -19 -4 -81 -29 -136 -56 l-102 -48 -58 21 c-44 16 -91 22 -182 26 l-124 4
61 41 c34 22 99 55 144 73 69 28 95 34 162 34 45 0 107 -7 139 -15z m579 -104
c107 -28 130 -43 51 -35 -116 12 -369 -30 -515 -85 -71 -27 -195 -101 -296
-177 -77 -58 -283 -250 -283 -264 0 -4 10 -6 23 -4 12 2 137 20 277 40 491 68
640 114 854 261 43 29 80 52 82 50 9 -8 -113 -131 -170 -171 -150 -108 -324
-171 -575 -212 -100 -16 -624 -74 -629 -69 -5 4 69 137 111 199 62 93 239 265
339 330 129 84 256 136 383 156 87 13 257 4 348 -19z m-805 -75 c28 -9 52 -20
52 -24 -1 -4 -26 -25 -57 -47 -30 -22 -83 -66 -118 -97 l-62 -57 -53 16 c-54
16 -216 14 -269 -2 -21 -7 -22 -6 -13 11 17 31 184 205 206 215 33 14 254 3
314 -15z m741 -57 c55 -19 69 -82 26 -124 -28 -29 -63 -32 -105 -10 -54 28
-53 106 3 130 39 17 37 17 76 4z m175 -5 c29 -28 12 -64 -29 -64 -42 0 -62 49
-27 69 24 15 38 13 56 -5z m-399 -44 c73 -35 86 -101 31 -156 -26 -26 -42 -34
-71 -34 -53 0 -101 26 -120 65 -13 30 -14 39 -2 67 16 39 35 56 74 68 41 12
43 12 88 -10z m-1764 -40 c22 -12 26 -59 7 -78 -17 -17 -48 -15 -70 5 -23 21
-23 38 2 63 23 23 33 24 61 10z m-1828 -70 c48 -54 33 -131 -35 -166 -67 -34
-148 18 -148 95 0 100 116 145 183 71z m3371 -9 c26 -27 25 -76 -2 -104 -48
-48 -152 -12 -152 53 0 71 100 104 154 51z m-531 -10 l28 -11 -64 -77 c-35
-43 -73 -93 -86 -110 l-22 -33 -92 0 c-69 0 -109 -6 -159 -24 -38 -12 -68 -21
-68 -18 0 11 38 86 84 164 53 92 68 103 166 122 42 8 183 -1 213 -13z m1140
-68 c-35 -56 -127 -179 -170 -228 -47 -52 -174 -167 -180 -162 -1 2 10 28 27
58 16 30 36 80 44 112 8 31 17 61 20 66 3 4 40 28 83 53 43 25 103 64 133 87
30 22 56 40 58 41 1 0 -5 -12 -15 -27z m-798 -9 c34 -34 -4 -77 -49 -56 -30
13 -33 33 -10 56 20 20 38 20 59 0z m-2167 -76 c15 -15 22 -33 22 -59 0 -50
-26 -79 -77 -86 -56 -7 -93 27 -93 85 0 80 87 116 148 60z m2040 -4 c3 -23
-18 -37 -43 -28 -16 6 -20 35 -8 48 14 14 48 1 51 -20z m632 -94 c0 -5 -11
-39 -25 -75 -26 -69 -67 -135 -108 -173 -22 -21 -120 -60 -189 -76 l-27 -6 39
81 c21 44 44 105 51 135 10 44 16 54 33 54 12 0 64 15 116 34 110 39 110 39
110 26z m-1017 -6 c4 -4 -2 -19 -12 -33 -10 -14 -33 -53 -51 -87 -19 -35 -48
-71 -68 -85 -19 -13 -83 -70 -141 -126 -58 -57 -108 -103 -110 -103 -2 0 -1
35 3 78 7 82 27 178 52 254 14 44 19 48 71 68 31 12 73 25 92 30 43 10 155 13
164 4z m737 -82 c0 -46 -82 -230 -110 -247 -12 -8 -228 -37 -245 -33 -10 2 -4
18 21 58 20 33 40 83 48 124 8 37 16 69 18 71 2 1 59 11 128 22 69 11 128 21
133 22 4 0 7 -7 7 -17z m-304 -74 c-9 -58 -46 -136 -84 -180 -30 -34 -36 -36
-114 -42 -46 -4 -104 -10 -131 -13 l-47 -6 34 56 c18 31 39 78 45 104 24 92
16 86 142 104 173 25 163 27 155 -23z m-309 -34 c-7 -41 -56 -147 -85 -183
-17 -21 -35 -26 -163 -42 -79 -9 -162 -20 -184 -24 l-40 -7 100 99 c145 144
160 153 268 174 51 9 96 17 101 18 5 1 6 -15 3 -35z"/>
</g>
</svg>
