<?xml version="1.0" standalone="no"?>
<!DOCTYPE svg PUBLIC "-//W3C//DTD SVG 20010904//EN"
 "http://www.w3.org/TR/2001/REC-SVG-20010904/DTD/svg10.dtd">
<svg version="1.0" xmlns="http://www.w3.org/2000/svg"
 width="698.000000pt" height="342.000000pt" viewBox="0 0 698.000000 342.000000"
 preserveAspectRatio="xMidYMid meet">

<g transform="translate(0.000000,342.000000) scale(0.100000,-0.100000)"
fill="#000000" stroke="none">
<path d="M3420 3378 c0 -43 -46 -212 -85 -310 -20 -51 -113 -246 -205 -433
-181 -366 -229 -477 -266 -625 -35 -133 -40 -249 -20 -390 46 -313 179 -540
460 -789 l115 -101 17 -77 c13 -57 15 -101 11 -177 -6 -94 -29 -211 -46 -228
-4 -5 -59 9 -121 31 -271 92 -305 111 -334 192 -87 245 -271 539 -454 730
-186 194 -284 252 -652 384 -241 87 -519 192 -595 225 -27 12 -110 44 -183 71
-72 27 -158 65 -190 84 -54 31 -132 105 -159 151 -9 16 -10 11 -6 -26 9 -77
51 -187 133 -349 86 -170 127 -276 220 -578 93 -300 175 -452 333 -620 240
-254 548 -383 915 -383 180 0 294 27 484 117 64 30 129 55 145 55 16 1 69 -17
118 -39 50 -23 137 -58 194 -79 117 -44 119 -41 -44 -70 -279 -49 -493 -58
-1765 -74 -454 -5 -951 -15 -1105 -22 -535 -24 -226 -32 1235 -32 1374 -1
1386 -1 1520 21 74 12 189 33 255 48 140 32 191 30 366 -9 285 -63 231 -61
1719 -60 1426 0 1727 8 1230 32 -140 7 -595 17 -1010 22 -1497 19 -1614 24
-1913 87 l-77 17 142 56 c79 32 163 67 188 78 25 12 57 22 71 22 14 0 68 -21
120 -46 182 -90 323 -124 507 -124 268 0 508 71 712 211 98 66 240 208 314
312 69 97 146 255 184 377 114 365 167 510 247 670 89 178 128 278 139 353 8
53 3 59 -18 20 -43 -83 -159 -157 -361 -231 -60 -22 -144 -55 -185 -73 -106
-45 -372 -145 -595 -224 -318 -112 -410 -164 -574 -320 -106 -102 -178 -190
-275 -337 -76 -116 -181 -317 -226 -433 -13 -33 -30 -68 -39 -78 -42 -50 -425
-192 -443 -165 -32 51 -58 209 -58 352 l0 121 72 65 c151 136 228 219 282 302
132 202 196 409 196 632 0 252 -72 475 -254 789 -123 211 -257 519 -341 777
-20 63 -39 117 -41 119 -2 2 -4 -7 -4 -21z m202 -708 c81 -123 82 -137 24
-254 -30 -61 -90 -138 -98 -125 -2 2 -22 43 -46 92 l-42 87 0 212 0 211 47
-59 c25 -32 77 -106 115 -164z m-234 -275 c-23 -49 -44 -92 -45 -94 -6 -9 -56
45 -79 85 -28 48 -64 148 -64 178 0 21 82 141 174 254 l51 64 3 -199 3 -198
-43 -90z m-145 -25 c14 -25 39 -58 55 -73 l29 -27 -54 -133 c-29 -72 -54 -136
-56 -141 -5 -15 -83 61 -117 115 -18 27 -41 76 -51 110 l-19 60 26 52 c15 29
47 87 72 131 l45 79 22 -64 c12 -35 33 -85 48 -109z m547 22 c37 -67 65 -128
64 -143 -2 -48 -61 -157 -114 -210 -28 -28 -54 -49 -57 -46 -3 3 -31 64 -63
136 l-58 130 40 42 c38 40 108 167 108 196 0 30 19 6 80 -105z m-278 -164
c187 -340 263 -576 262 -818 -1 -151 -22 -242 -90 -375 -43 -85 -105 -176 -89
-130 45 130 69 322 62 499 -4 107 -11 156 -41 271 -52 199 -146 489 -155 479
-5 -5 -27 -56 -49 -114 -122 -318 -177 -602 -154 -794 14 -111 50 -233 99
-330 19 -37 32 -70 30 -73 -10 -10 -108 124 -142 194 -63 128 -78 206 -79 388
-1 184 16 282 85 483 42 121 181 422 196 422 5 0 34 -46 65 -102z m-425 -145
c19 -29 53 -68 76 -87 l41 -34 -32 -118 c-18 -66 -36 -132 -41 -149 l-8 -30
-74 75 c-42 43 -88 103 -108 139 -32 60 -33 65 -21 109 7 26 31 94 53 151 l40
104 20 -54 c11 -30 35 -78 54 -106z m859 -14 l49 -121 -39 -73 c-37 -69 -147
-205 -167 -205 -5 0 -9 8 -9 18 0 9 -20 75 -45 146 l-44 129 25 20 c69 54 153
177 154 226 1 31 25 -14 76 -140z m-461 -129 c0 -18 -6 -26 -23 -28 -13 -2
-25 3 -28 12 -10 26 4 48 28 44 17 -2 23 -10 23 -28z m544 -231 c1 -89 -1
-101 -31 -160 -20 -41 -58 -90 -102 -134 l-70 -70 -7 100 c-4 55 -12 120 -17
144 l-10 44 66 66 c37 36 85 97 107 136 l40 69 12 -49 c6 -28 12 -93 12 -146z
m-973 -17 l59 -53 0 -144 c0 -80 -2 -145 -4 -145 -2 0 -25 16 -51 35 -57 42
-106 100 -150 178 l-33 58 5 123 c3 68 8 128 12 135 5 7 25 -16 55 -61 26 -41
74 -97 107 -126z m432 136 c7 -7 12 -22 12 -35 0 -28 -36 -46 -62 -31 -34 17
-16 78 22 78 9 0 21 -5 28 -12z m25 -128 c80 -63 4 -188 -88 -144 -60 28 -69
103 -18 144 33 26 73 25 106 0z m-2243 -27 c176 -39 181 -41 212 -98 39 -71
65 -142 73 -204 8 -61 19 -61 -120 -8 -61 23 -90 41 -124 76 -160 167 -219
229 -236 250 l-20 24 50 -7 c28 -4 102 -19 165 -33z m4635 5 c-14 -17 -81 -88
-148 -158 l-122 -127 -98 -38 c-54 -20 -100 -35 -103 -32 -3 2 0 35 7 72 13
74 79 219 107 234 27 14 310 77 360 80 l24 1 -27 -32z m50 -78 c-15 -101 -51
-278 -66 -316 -10 -29 -95 -78 -178 -104 -62 -20 -131 -27 -131 -13 0 3 19 53
42 111 l41 104 150 159 c83 87 151 158 153 156 1 -1 -4 -45 -11 -97z m-4772
-64 l146 -153 41 -104 c22 -57 40 -107 40 -111 0 -14 -68 -8 -131 12 -35 11
-89 35 -119 53 -54 32 -55 35 -72 103 -10 38 -27 123 -38 189 -28 167 -28 165
-20 165 4 0 73 -69 153 -154z m464 34 c132 -40 132 -40 159 -86 14 -24 35 -72
45 -105 22 -71 26 -169 7 -169 -7 1 -71 22 -143 48 l-130 47 -6 60 c-7 71 -22
120 -60 197 -16 32 -24 56 -16 53 6 -2 71 -22 144 -45z m3825 -7 c-39 -78 -54
-127 -61 -198 l-6 -60 -116 -42 c-181 -65 -169 -65 -169 0 0 65 27 158 64 221
27 46 27 46 159 87 73 22 137 42 142 44 6 2 11 4 13 4 1 1 -11 -25 -26 -56z
m-2457 -171 c31 -29 70 -59 85 -67 23 -12 31 -27 49 -100 12 -47 39 -127 61
-178 l39 -92 -66 70 c-131 139 -244 331 -277 470 -7 29 -7 29 22 -10 16 -22
55 -64 87 -93z m-1046 74 l125 -43 24 -64 c23 -62 65 -239 58 -247 -2 -1 -64
16 -139 39 l-134 42 -6 76 c-6 76 -34 175 -62 218 -21 32 -12 30 134 -21z
m3175 -6 c-28 -56 -54 -163 -54 -226 l0 -40 -122 -38 c-68 -21 -130 -41 -139
-43 -15 -4 -15 2 -2 79 9 45 28 117 44 158 l29 75 122 42 c68 23 128 42 135
42 8 1 3 -18 -13 -49z m-1626 20 c18 -11 40 -36 49 -55 15 -32 16 -40 3 -77
-19 -53 -57 -81 -109 -81 -51 0 -89 25 -108 71 -21 50 -2 107 46 139 42 28 76
29 119 3z m476 -32 c-22 -73 -83 -200 -135 -280 -46 -70 -180 -231 -186 -224
-2 2 9 26 25 52 41 67 70 138 95 232 21 74 25 82 77 124 30 24 73 67 94 96 21
29 40 52 42 52 2 0 -4 -24 -12 -52z m-1708 -113 c54 -32 86 -71 124 -150 35
-73 72 -208 59 -213 -5 -2 -22 6 -37 17 -37 26 -192 101 -209 101 -7 0 -15 10
-17 23 -3 12 -13 58 -22 102 -9 44 -25 104 -35 134 -11 30 -19 56 -19 57 0 6
112 -46 156 -71z m2559 23 c-10 -24 -27 -92 -40 -151 l-22 -108 -75 -33 c-42
-18 -99 -47 -128 -65 -29 -18 -55 -29 -58 -26 -10 10 29 146 60 212 48 97 79
128 181 178 50 24 93 42 95 40 3 -2 -3 -23 -13 -47z m-3213 -142 c95 -30 252
-77 348 -105 218 -64 274 -84 375 -134 190 -93 361 -238 442 -372 65 -109 62
-115 -17 -31 -165 173 -345 278 -639 371 -97 31 -263 85 -369 120 -129 42
-192 58 -188 49 10 -26 109 -169 166 -239 70 -86 213 -223 306 -293 150 -114
482 -238 651 -243 77 -3 -89 -28 -185 -29 -379 -1 -760 263 -962 669 -56 112
-121 291 -106 291 3 0 83 -24 178 -54z m3903 27 c-31 -127 -125 -323 -214
-450 -108 -153 -312 -327 -469 -400 -130 -59 -218 -78 -377 -78 -77 0 -158 4
-180 9 -39 9 -37 9 55 23 113 17 296 76 424 137 194 93 444 331 595 565 22 35
41 68 41 72 0 4 -71 -17 -157 -46 -87 -30 -241 -79 -342 -110 -330 -100 -499
-192 -675 -367 -101 -101 -109 -102 -53 -10 102 170 286 319 516 418 43 19
204 72 357 119 154 46 322 97 374 114 52 16 99 30 104 30 4 1 5 -11 1 -26z
m-2923 -233 c64 -97 116 -189 153 -273 l26 -59 -79 79 c-43 43 -108 102 -144
131 -63 52 -66 55 -72 108 -6 53 -23 109 -60 199 -17 39 -16 39 51 -30 38 -39
94 -108 125 -155z m1939 172 c-24 -48 -61 -176 -61 -213 0 -21 -12 -37 -52
-69 -29 -22 -95 -82 -146 -133 l-93 -92 30 67 c39 87 133 250 181 314 49 65
151 176 157 170 2 -2 -5 -22 -16 -44z m-3351 1 c67 -31 148 -53 201 -53 27 0
32 -6 63 -72 18 -40 52 -103 74 -141 23 -37 42 -72 42 -78 0 -8 -31 -10 -97
-7 -87 4 -107 8 -180 42 l-81 38 -33 86 c-32 87 -69 200 -69 215 0 5 3 7 8 5
4 -2 36 -18 72 -35z m2321 11 c24 -21 32 -64 20 -97 -13 -35 -64 -60 -102 -52
-58 13 -85 97 -47 143 29 34 94 38 129 6z m2349 18 c0 -17 -33 -120 -67 -208
l-35 -92 -81 -38 c-74 -35 -92 -39 -179 -42 -54 -3 -98 -1 -98 3 0 5 20 42 44
84 25 42 59 106 76 144 29 61 35 67 61 67 54 0 163 30 214 59 55 32 65 35 65
23z m-4080 -217 c16 -19 6 -45 -18 -45 -25 0 -46 25 -38 45 7 19 40 19 56 0z
m3465 -15 c0 -20 -6 -26 -28 -28 -32 -4 -46 20 -26 44 19 24 54 14 54 -16z
m-1755 -10 c13 -25 -1 -56 -30 -65 -36 -11 -64 24 -49 63 11 29 63 31 79 2z
m-1582 -46 c25 -17 29 -46 8 -64 -21 -17 -56 -9 -73 17 -13 19 -12 24 6 42 25
25 30 26 59 5z m3210 0 c26 -18 28 -37 6 -58 -37 -37 -98 -2 -74 43 9 17 23
28 40 30 3 1 16 -6 28 -15z m-3038 -49 c92 -48 47 -180 -54 -161 -40 8 -74 42
-82 84 -5 26 -1 36 24 62 34 34 67 38 112 15z m2921 -14 c39 -40 38 -74 -5
-117 -44 -44 -86 -46 -127 -5 -16 16 -29 39 -29 50 0 88 100 133 161 72z
m-3624 -47 c36 -9 88 -14 139 -12 l81 3 43 -55 c23 -30 79 -92 123 -137 l80
-82 -29 -8 c-16 -4 -78 -8 -139 -8 -85 0 -126 5 -180 23 -68 21 -72 24 -122
96 -50 71 -133 213 -133 229 0 4 18 -2 40 -13 22 -11 65 -27 97 -36z m4322
-15 c-28 -56 -101 -169 -143 -222 -37 -47 -270 -82 -375 -57 l-52 12 88 92
c49 50 104 112 122 137 l32 46 77 -5 c84 -5 173 13 240 47 20 10 38 18 40 16
2 -2 -11 -32 -29 -66z m-3365 -24 c92 -44 85 -188 -9 -214 -100 -27 -195 62
-165 155 22 65 103 92 174 59z m2426 0 c33 -17 60 -61 60 -97 0 -30 -33 -83
-64 -103 -28 -19 -89 -22 -128 -6 -33 12 -58 58 -58 105 0 38 38 92 74 106 33
14 85 11 116 -5z m-2167 -165 c29 -33 33 -55 16 -93 -30 -66 -140 -58 -169 12
-17 42 -5 78 33 102 42 26 83 18 120 -21z m1925 4 c27 -31 28 -67 2 -105 -40
-55 -136 -48 -161 13 -17 40 -3 76 41 106 43 29 85 24 118 -14z m-1778 -104
c11 -11 20 -24 20 -30 0 -12 -37 -50 -48 -50 -18 0 -52 33 -52 50 0 22 26 50
46 50 8 0 23 -9 34 -20z m1551 10 c27 -15 24 -56 -5 -75 -52 -34 -97 35 -48
73 19 15 28 15 53 2z m-2701 -31 c80 -13 146 -11 217 7 l63 16 71 -53 c39 -29
105 -69 146 -89 l75 -37 -39 -16 c-125 -50 -291 -48 -395 4 -72 36 -179 113
-223 160 l-30 32 30 -8 c17 -3 55 -11 85 -16z m3613 -1 c55 -11 193 -2 267 18
24 6 23 5 -10 -31 -46 -49 -139 -115 -218 -154 -104 -52 -270 -54 -394 -4
l-39 15 78 39 c43 21 107 61 143 89 50 38 71 49 90 45 14 -3 51 -10 83 -17z
m-2883 -193 c53 -12 111 -16 198 -13 67 2 122 2 122 1 0 -4 -146 -43 -214 -57
-106 -22 -314 -21 -431 1 l-90 17 75 11 c88 14 145 30 180 50 27 16 42 15 160
-10z m2519 -1 c36 -15 102 -32 146 -39 l80 -11 -85 -17 c-132 -26 -338 -23
-470 7 -198 46 -201 51 -22 52 110 1 172 5 207 16 69 21 70 21 144 -8z"/>
</g>
</svg>
