<?xml version="1.0" standalone="no"?>
<!DOCTYPE svg PUBLIC "-//W3C//DTD SVG 20010904//EN"
 "http://www.w3.org/TR/2001/REC-SVG-20010904/DTD/svg10.dtd">
<svg version="1.0" xmlns="http://www.w3.org/2000/svg"
 width="1280.000000pt" height="640.000000pt" viewBox="0 0 1280.000000 640.000000"
 preserveAspectRatio="xMidYMid meet">
<metadata>
Created by potrace 1.15, written by Peter Selinger 2001-2017
</metadata>
<g transform="translate(0.000000,640.000000) scale(0.100000,-0.100000)"
fill="#000000" stroke="none">
<path d="M4945 5022 c-38 -10 -90 -29 -115 -42 -122 -63 -389 -252 -570 -405
-242 -205 -355 -407 -274 -489 34 -33 156 -72 289 -92 104 -16 357 -23 530
-14 l100 5 13 -80 c7 -44 13 -143 14 -220 1 -160 -13 -242 -68 -394 -42 -116
-71 -278 -80 -444 l-7 -123 32 -27 c74 -62 316 -100 491 -77 97 12 194 42 220
67 24 22 19 203 -9 338 -36 174 -78 336 -137 525 -46 150 -120 467 -111 476 2
2 64 10 138 19 372 43 578 84 682 136 192 95 194 205 8 381 -101 96 -191 162
-386 284 -243 152 -334 183 -555 190 -108 3 -149 0 -205 -14z"/>
<path d="M7349 4490 c-42 -7 -101 -30 -404 -155 -49 -20 -164 -66 -253 -100
-199 -78 -290 -119 -319 -147 -89 -84 84 -284 330 -383 60 -24 135 -42 285
-66 l202 -34 10 -30 c17 -54 28 -193 18 -238 -5 -23 -25 -73 -44 -112 -30 -59
-37 -86 -47 -181 -13 -130 -11 -134 68 -169 47 -21 116 -36 228 -50 34 -5 63
-17 94 -41 59 -45 226 -126 328 -159 84 -27 267 -65 313 -65 15 0 32 -4 38 -8
7 -4 22 -67 34 -140 28 -162 21 -221 -39 -346 -39 -80 -42 -91 -52 -221 -10
-134 -10 -138 11 -160 73 -78 347 -127 525 -94 64 12 133 42 140 62 12 33 21
213 14 297 -16 188 -60 411 -105 520 -13 33 -24 63 -24 68 0 4 45 14 100 20
249 32 417 83 631 193 195 101 305 197 316 277 5 36 2 44 -38 87 -55 59 -120
97 -354 205 -104 48 -253 126 -330 174 -223 138 -364 183 -545 173 -133 -7
-165 -19 -487 -181 -138 -69 -253 -126 -256 -126 -4 0 -16 33 -28 73 -12 39
-32 92 -45 118 l-22 45 141 17 c229 28 409 80 605 174 165 80 252 152 252 208
0 61 -77 108 -355 219 -121 48 -275 116 -342 152 -140 73 -203 99 -299 119
-73 16 -218 18 -295 5z"/>
<path d="M2595 4473 c-35 -5 -253 -108 -387 -183 -103 -58 -293 -197 -349
-257 -20 -21 -49 -60 -63 -88 -47 -90 -34 -123 69 -171 126 -58 316 -98 535
-112 l105 -7 3 -125 c2 -111 0 -129 -18 -158 -11 -19 -24 -32 -28 -30 -24 10
-161 63 -247 94 -55 20 -131 52 -170 72 -38 19 -95 48 -126 63 -167 82 -361
116 -515 88 -63 -11 -209 -63 -382 -135 -59 -25 -195 -78 -302 -118 -241 -90
-285 -111 -310 -146 -28 -40 -25 -71 13 -126 64 -94 229 -201 387 -253 90 -29
240 -59 333 -67 43 -4 84 -13 91 -20 7 -7 19 -56 26 -108 15 -111 8 -151 -44
-255 -26 -51 -36 -89 -46 -170 l-14 -104 32 -28 c38 -34 75 -45 222 -65 214
-29 378 -5 393 58 14 59 18 170 8 243 -19 134 -59 295 -91 363 -16 35 -30 65
-30 67 0 1 33 5 73 9 142 14 339 57 484 107 69 23 63 24 63 -5 0 -31 34 -72
78 -95 90 -45 313 -76 429 -59 106 15 106 16 107 139 1 94 -3 118 -42 250 -53
181 -69 267 -78 403 l-7 106 199 0 c408 1 548 32 598 133 17 36 17 41 2 82
-28 72 -75 133 -185 240 -140 137 -241 217 -326 261 -38 20 -85 45 -103 56
-73 45 -258 69 -387 51z"/>
<path d="M10570 4150 c-41 -15 -138 -56 -215 -90 -77 -34 -221 -93 -320 -131
-196 -76 -245 -103 -276 -152 -59 -93 43 -303 210 -431 40 -31 116 -69 238
-120 100 -42 186 -76 192 -76 7 0 11 -41 11 -128 0 -142 -14 -213 -57 -293
-16 -28 -36 -65 -45 -82 -18 -34 -46 -146 -58 -237 -11 -77 7 -106 88 -146 79
-39 231 -69 308 -61 107 11 141 62 166 242 21 161 10 576 -18 648 -3 9 30 16
118 24 172 17 300 52 443 122 212 103 306 194 290 278 -9 49 -106 145 -268
266 -65 49 -148 119 -185 156 -133 133 -242 201 -358 226 -105 22 -177 18
-264 -15z"/>
</g>
</svg>
